<svg version="1.1" viewBox="0 0 16 16" xmlns="http://www.w3.org/2000/svg">
    <style id="current-color-scheme" type="text/css">.ColorScheme-NegativeText {
            color:#232629;
        }</style>
    <path d="m2.3398438 1.3613281c-6.6523408-1e-7 -12.298828 5.6464874-12.298828 12.298828-1e-7 6.652341 5.6464874 12.298829 12.298828 12.298828 6.6523407 1e-6 12.298828-5.646487 12.298828-12.298828 0-6.6523405-5.6464875-12.298828-12.298828-12.298828zm0 0.9472657c6.1298793-2e-7 11.351562 5.2216831 11.351562 11.351562 0 6.12988-5.2216829 11.353516-11.351562 11.353516-6.1298794 0-11.353516-5.223636-11.353516-11.353516-1e-7 -6.1298791 5.2236363-11.351562 11.353516-11.351562z" color="#232629" color-rendering="auto" dominant-baseline="auto" fill-opacity="0" image-rendering="auto" shape-rendering="auto" solid-color="#232629" stop-color="#232629" style="font-feature-settings:normal;font-variant-alternates:normal;font-variant-caps:normal;font-variant-east-asian:normal;font-variant-ligatures:normal;font-variant-numeric:normal;font-variant-position:normal;font-variation-settings:normal;inline-size:0;isolation:auto;mix-blend-mode:normal;shape-margin:0;shape-padding:0;text-decoration-color:#232629;text-decoration-line:none;text-decoration-style:solid;text-indent:0;text-orientation:mixed;text-transform:none;white-space:normal"/>
    <path d="m13.648438-9.9492188c-6.6523412-1e-7 -12.298829 5.6464874-12.298829 12.298828-2e-7 6.6523407 5.6464874 12.298829 12.298829 12.298829 6.65234 0 12.298828-5.6464879 12.298828-12.298829 0-6.6523408-5.646488-12.298828-12.298828-12.298828zm0 0.9472657c6.129879-2e-7 11.351562 5.2216831 11.351562 11.351562 0 6.1298793-5.221683 11.353516-11.351562 11.353516-6.1298799 0-11.353516-5.2236363-11.353516-11.353516-2e-7 -6.1298794 5.2236362-11.351563 11.353516-11.351562z" color="#232629" color-rendering="auto" dominant-baseline="auto" fill-opacity="0" image-rendering="auto" shape-rendering="auto" solid-color="#232629" stop-color="#232629" style="font-feature-settings:normal;font-variant-alternates:normal;font-variant-caps:normal;font-variant-east-asian:normal;font-variant-ligatures:normal;font-variant-numeric:normal;font-variant-position:normal;font-variation-settings:normal;inline-size:0;isolation:auto;mix-blend-mode:normal;shape-margin:0;shape-padding:0;text-decoration-color:#232629;text-decoration-line:none;text-decoration-style:solid;text-indent:0;text-orientation:mixed;text-transform:none;white-space:normal"/>
    <path d="m2.5904 2.5904 10.8192 10.8192m-10.8192 0 10.8192-10.8192" fill="#232629" stroke="#232629" stroke-linecap="round" stroke-width="1.2"/>
</svg>
